<?xml version="1.0" encoding="UTF-8" standalone="no" ?>
<!DOCTYPE svg PUBLIC "-//W3C//DTD SVG 1.1//EN" "http://www.w3.org/Graphics/SVG/1.1/DTD/svg11.dtd">
<svg xmlns="http://www.w3.org/2000/svg" xmlns:xlink="http://www.w3.org/1999/xlink" version="1.1" width="400" height="400" viewBox="0 0 400 400" xml:space="preserve">
<desc>Created with Fabric.js 3.6.2</desc>
<defs>
</defs>
<g transform="matrix(5.35 0 0 5.35 287.69 302.86)" id="Layer_1-2"  >
<line style="stroke: rgb(55,53,53); stroke-width: 1; stroke-dasharray: none; stroke-linecap: round; stroke-dashoffset: 0; stroke-linejoin: miter; stroke-miterlimit: 10; fill: none; fill-rule: nonzero; opacity: 1;"  x1="0" y1="-2.25" x2="0" y2="2.25" />
</g>
<g transform="matrix(5.35 0 0 5.35 200 173.13)" id="Layer_1-2"  >
<path style="stroke: rgb(55,53,53); stroke-width: 1; stroke-dasharray: none; stroke-linecap: round; stroke-dashoffset: 0; stroke-linejoin: miter; stroke-miterlimit: 10; fill: none; fill-rule: nonzero; opacity: 1;"  transform=" translate(-18.69, -41.18)" d="M 2.3 48.21 V 24.36 a 2 2 0 0 1 2 -2 H 33.07 a 2 2 0 0 1 2 2 V 60" stroke-linecap="round" />
</g>
<g transform="matrix(5.35 0 0 5.35 112.31 248.43)" id="Layer_1-2"  >
<line style="stroke: rgb(55,53,53); stroke-width: 1; stroke-dasharray: none; stroke-linecap: round; stroke-dashoffset: 0; stroke-linejoin: miter; stroke-miterlimit: 10; fill: none; fill-rule: nonzero; opacity: 1;"  x1="0" y1="1.9200000000000017" x2="0" y2="-1.9200000000000017" />
</g>
<g transform="matrix(5.35 0 0 5.35 200 350.01)" id="Layer_1-2"  >
<polyline style="stroke: rgb(55,53,53); stroke-width: 1; stroke-dasharray: none; stroke-linecap: round; stroke-dashoffset: 0; stroke-linejoin: miter; stroke-miterlimit: 10; fill: none; fill-rule: nonzero; opacity: 1;"  points="16.38,-1.21 16.38,13.23 -16.39,13.23 -16.39,-13.23 " />
</g>
<g transform="matrix(5.35 0 0 5.35 199.97 432.7)" id="Layer_1-2"  >
<path style="stroke: rgb(55,53,53); stroke-width: 1; stroke-dasharray: none; stroke-linecap: round; stroke-dashoffset: 0; stroke-linejoin: miter; stroke-miterlimit: 10; fill: none; fill-rule: nonzero; opacity: 1;"  transform=" translate(-18.68, -89.68)" d="M 29.43 91.9 h 5.21 a 2.22 2.22 0 0 0 2.22 -2.22 h 0 a 2.22 2.22 0 0 0 -2.22 -2.22 H 2.72 A 2.22 2.22 0 0 0 0.5 89.68 h 0 A 2.22 2.22 0 0 0 2.72 91.9 H 18" stroke-linecap="round" />
</g>
<g transform="matrix(5.35 0 0 5.35 221.92 444.58)" id="Layer_1-2"  >
<line style="stroke: rgb(55,53,53); stroke-width: 1; stroke-dasharray: none; stroke-linecap: round; stroke-dashoffset: 0; stroke-linejoin: miter; stroke-miterlimit: 10; fill: none; fill-rule: nonzero; opacity: 1;"  x1="-1.5700000000000003" y1="0" x2="1.5700000000000003" y2="0" />
</g>
<g transform="matrix(5.35 0 0 5.35 199.97 164.89)" id="Layer_1-2"  >
<rect style="stroke: rgb(55,53,53); stroke-width: 1; stroke-dasharray: none; stroke-linecap: round; stroke-dashoffset: 0; stroke-linejoin: miter; stroke-miterlimit: 10; fill: none; fill-rule: nonzero; opacity: 1;"  x="-10.75" y="-12.95" rx="3.68" ry="3.68" width="21.5" height="25.9" />
</g>
<g transform="matrix(5.35 0 0 5.35 158.92 120.36)" id="Layer_1-2"  >
<line style="stroke: rgb(55,53,53); stroke-width: 1; stroke-dasharray: none; stroke-linecap: round; stroke-dashoffset: 0; stroke-linejoin: miter; stroke-miterlimit: 10; fill: none; fill-rule: nonzero; opacity: 1;"  x1="0" y1="0" x2="0" y2="0" />
</g>
<g transform="matrix(5.35 0 0 5.35 203.48 120.36)" id="Layer_1-2"  >
<line style="stroke: rgb(55,53,53); stroke-width: 1; stroke-dasharray: 0 1.96; stroke-linecap: round; stroke-dashoffset: 0; stroke-linejoin: miter; stroke-miterlimit: 10; fill: none; fill-rule: nonzero; opacity: 1;"  x1="-6.364999999999999" y1="0" x2="6.364999999999999" y2="0" />
</g>
<g transform="matrix(5.35 0 0 5.35 242.79 120.36)" id="Layer_1-2"  >
<line style="stroke: rgb(55,53,53); stroke-width: 1; stroke-dasharray: none; stroke-linecap: round; stroke-dashoffset: 0; stroke-linejoin: miter; stroke-miterlimit: 10; fill: none; fill-rule: nonzero; opacity: 1;"  x1="0" y1="0" x2="0" y2="0" />
</g>
<g transform="matrix(5.35 0 0 5.35 158.92 137.86)" id="Layer_1-2"  >
<line style="stroke: rgb(55,53,53); stroke-width: 1; stroke-dasharray: none; stroke-linecap: round; stroke-dashoffset: 0; stroke-linejoin: miter; stroke-miterlimit: 10; fill: none; fill-rule: nonzero; opacity: 1;"  x1="0" y1="0" x2="0" y2="0" />
</g>
<g transform="matrix(5.35 0 0 5.35 203.48 137.86)" id="Layer_1-2"  >
<line style="stroke: rgb(55,53,53); stroke-width: 1; stroke-dasharray: 0 1.96; stroke-linecap: round; stroke-dashoffset: 0; stroke-linejoin: miter; stroke-miterlimit: 10; fill: none; fill-rule: nonzero; opacity: 1;"  x1="-6.364999999999999" y1="0" x2="6.364999999999999" y2="0" />
</g>
<g transform="matrix(5.35 0 0 5.35 242.79 137.86)" id="Layer_1-2"  >
<line style="stroke: rgb(55,53,53); stroke-width: 1; stroke-dasharray: none; stroke-linecap: round; stroke-dashoffset: 0; stroke-linejoin: miter; stroke-miterlimit: 10; fill: none; fill-rule: nonzero; opacity: 1;"  x1="0" y1="0" x2="0" y2="0" />
</g>
<g transform="matrix(5.35 0 0 5.35 158.92 155.37)" id="Layer_1-2"  >
<line style="stroke: rgb(55,53,53); stroke-width: 1; stroke-dasharray: none; stroke-linecap: round; stroke-dashoffset: 0; stroke-linejoin: miter; stroke-miterlimit: 10; fill: none; fill-rule: nonzero; opacity: 1;"  x1="0" y1="0" x2="0" y2="0" />
</g>
<g transform="matrix(5.35 0 0 5.35 203.48 155.37)" id="Layer_1-2"  >
<line style="stroke: rgb(55,53,53); stroke-width: 1; stroke-dasharray: 0 1.96; stroke-linecap: round; stroke-dashoffset: 0; stroke-linejoin: miter; stroke-miterlimit: 10; fill: none; fill-rule: nonzero; opacity: 1;"  x1="-6.364999999999999" y1="0" x2="6.364999999999999" y2="0" />
</g>
<g transform="matrix(5.35 0 0 5.35 242.79 155.37)" id="Layer_1-2"  >
<line style="stroke: rgb(55,53,53); stroke-width: 1; stroke-dasharray: none; stroke-linecap: round; stroke-dashoffset: 0; stroke-linejoin: miter; stroke-miterlimit: 10; fill: none; fill-rule: nonzero; opacity: 1;"  x1="0" y1="0" x2="0" y2="0" />
</g>
<g transform="matrix(5.35 0 0 5.35 158.92 172.87)" id="Layer_1-2"  >
<line style="stroke: rgb(55,53,53); stroke-width: 1; stroke-dasharray: none; stroke-linecap: round; stroke-dashoffset: 0; stroke-linejoin: miter; stroke-miterlimit: 10; fill: none; fill-rule: nonzero; opacity: 1;"  x1="0" y1="0" x2="0" y2="0" />
</g>
<g transform="matrix(5.35 0 0 5.35 203.48 172.87)" id="Layer_1-2"  >
<line style="stroke: rgb(55,53,53); stroke-width: 1; stroke-dasharray: 0 1.96; stroke-linecap: round; stroke-dashoffset: 0; stroke-linejoin: miter; stroke-miterlimit: 10; fill: none; fill-rule: nonzero; opacity: 1;"  x1="-6.364999999999999" y1="0" x2="6.364999999999999" y2="0" />
</g>
<g transform="matrix(5.35 0 0 5.35 242.79 172.87)" id="Layer_1-2"  >
<line style="stroke: rgb(55,53,53); stroke-width: 1; stroke-dasharray: none; stroke-linecap: round; stroke-dashoffset: 0; stroke-linejoin: miter; stroke-miterlimit: 10; fill: none; fill-rule: nonzero; opacity: 1;"  x1="0" y1="0" x2="0" y2="0" />
</g>
<g transform="matrix(5.35 0 0 5.35 158.92 190.31)" id="Layer_1-2"  >
<line style="stroke: rgb(55,53,53); stroke-width: 1; stroke-dasharray: none; stroke-linecap: round; stroke-dashoffset: 0; stroke-linejoin: miter; stroke-miterlimit: 10; fill: none; fill-rule: nonzero; opacity: 1;"  x1="0" y1="0" x2="0" y2="0" />
</g>
<g transform="matrix(5.35 0 0 5.35 203.48 190.31)" id="Layer_1-2"  >
<line style="stroke: rgb(55,53,53); stroke-width: 1; stroke-dasharray: 0 1.96; stroke-linecap: round; stroke-dashoffset: 0; stroke-linejoin: miter; stroke-miterlimit: 10; fill: none; fill-rule: nonzero; opacity: 1;"  x1="-6.364999999999999" y1="0" x2="6.364999999999999" y2="0" />
</g>
<g transform="matrix(5.35 0 0 5.35 242.79 190.31)" id="Layer_1-2"  >
<line style="stroke: rgb(55,53,53); stroke-width: 1; stroke-dasharray: none; stroke-linecap: round; stroke-dashoffset: 0; stroke-linejoin: miter; stroke-miterlimit: 10; fill: none; fill-rule: nonzero; opacity: 1;"  x1="0" y1="0" x2="0" y2="0" />
</g>
<g transform="matrix(5.35 0 0 5.35 158.92 207.81)" id="Layer_1-2"  >
<line style="stroke: rgb(55,53,53); stroke-width: 1; stroke-dasharray: none; stroke-linecap: round; stroke-dashoffset: 0; stroke-linejoin: miter; stroke-miterlimit: 10; fill: none; fill-rule: nonzero; opacity: 1;"  x1="0" y1="0" x2="0" y2="0" />
</g>
<g transform="matrix(5.35 0 0 5.35 203.48 207.81)" id="Layer_1-2"  >
<line style="stroke: rgb(55,53,53); stroke-width: 1; stroke-dasharray: 0 1.96; stroke-linecap: round; stroke-dashoffset: 0; stroke-linejoin: miter; stroke-miterlimit: 10; fill: none; fill-rule: nonzero; opacity: 1;"  x1="-6.364999999999999" y1="0" x2="6.364999999999999" y2="0" />
</g>
<g transform="matrix(5.35 0 0 5.35 242.79 207.81)" id="Layer_1-2"  >
<line style="stroke: rgb(55,53,53); stroke-width: 1; stroke-dasharray: none; stroke-linecap: round; stroke-dashoffset: 0; stroke-linejoin: miter; stroke-miterlimit: 10; fill: none; fill-rule: nonzero; opacity: 1;"  x1="0" y1="0" x2="0" y2="0" />
</g>
<g transform="matrix(5.35 0 0 5.35 154.19 273.83)" id="Layer_1-2"  >
<rect style="stroke: rgb(55,53,53); stroke-width: 1; stroke-dasharray: none; stroke-linecap: round; stroke-dashoffset: 0; stroke-linejoin: miter; stroke-miterlimit: 10; fill: none; fill-rule: nonzero; opacity: 1;"  x="-2.195" y="-2.195" rx="1.02" ry="1.02" width="4.39" height="4.39" />
</g>
<g transform="matrix(5.35 0 0 5.35 201.77 273.83)" id="Layer_1-2"  >
<rect style="stroke: rgb(55,53,53); stroke-width: 1; stroke-dasharray: none; stroke-linecap: round; stroke-dashoffset: 0; stroke-linejoin: miter; stroke-miterlimit: 10; fill: none; fill-rule: nonzero; opacity: 1;"  x="-2.195" y="-2.195" rx="1.02" ry="1.02" width="4.39" height="4.39" />
</g>
<g transform="matrix(5.35 0 0 5.35 245.76 273.83)" id="Layer_1-2"  >
<rect style="stroke: rgb(55,53,53); stroke-width: 1; stroke-dasharray: none; stroke-linecap: round; stroke-dashoffset: 0; stroke-linejoin: miter; stroke-miterlimit: 10; fill: none; fill-rule: nonzero; opacity: 1;"  x="-2.195" y="-2.195" rx="1.02" ry="1.02" width="4.39" height="4.39" />
</g>
<g transform="matrix(5.35 0 0 5.35 154.19 308.67)" id="Layer_1-2"  >
<rect style="stroke: rgb(55,53,53); stroke-width: 1; stroke-dasharray: none; stroke-linecap: round; stroke-dashoffset: 0; stroke-linejoin: miter; stroke-miterlimit: 10; fill: none; fill-rule: nonzero; opacity: 1;"  x="-2.195" y="-2.195" rx="1.02" ry="1.02" width="4.39" height="4.39" />
</g>
<g transform="matrix(5.35 0 0 5.35 201.77 308.67)" id="Layer_1-2"  >
<rect style="stroke: rgb(55,53,53); stroke-width: 1; stroke-dasharray: none; stroke-linecap: round; stroke-dashoffset: 0; stroke-linejoin: miter; stroke-miterlimit: 10; fill: none; fill-rule: nonzero; opacity: 1;"  x="-2.195" y="-2.195" rx="1.02" ry="1.02" width="4.39" height="4.39" />
</g>
<g transform="matrix(5.35 0 0 5.35 245.76 308.67)" id="Layer_1-2"  >
<rect style="stroke: rgb(55,53,53); stroke-width: 1; stroke-dasharray: none; stroke-linecap: round; stroke-dashoffset: 0; stroke-linejoin: miter; stroke-miterlimit: 10; fill: none; fill-rule: nonzero; opacity: 1;"  x="-2.195" y="-2.195" rx="1.02" ry="1.02" width="4.39" height="4.39" />
</g>
<g transform="matrix(5.35 0 0 5.35 154.19 343.51)" id="Layer_1-2"  >
<rect style="stroke: rgb(55,53,53); stroke-width: 1; stroke-dasharray: none; stroke-linecap: round; stroke-dashoffset: 0; stroke-linejoin: miter; stroke-miterlimit: 10; fill: none; fill-rule: nonzero; opacity: 1;"  x="-2.195" y="-2.195" rx="1.02" ry="1.02" width="4.39" height="4.39" />
</g>
<g transform="matrix(5.35 0 0 5.35 201.77 343.51)" id="Layer_1-2"  >
<rect style="stroke: rgb(55,53,53); stroke-width: 1; stroke-dasharray: none; stroke-linecap: round; stroke-dashoffset: 0; stroke-linejoin: miter; stroke-miterlimit: 10; fill: none; fill-rule: nonzero; opacity: 1;"  x="-2.195" y="-2.195" rx="1.02" ry="1.02" width="4.39" height="4.39" />
</g>
<g transform="matrix(5.35 0 0 5.35 245.76 343.51)" id="Layer_1-2"  >
<rect style="stroke: rgb(55,53,53); stroke-width: 1; stroke-dasharray: none; stroke-linecap: round; stroke-dashoffset: 0; stroke-linejoin: miter; stroke-miterlimit: 10; fill: none; fill-rule: nonzero; opacity: 1;"  x="-2.195" y="-2.195" rx="1.02" ry="1.02" width="4.39" height="4.39" />
</g>
<g transform="matrix(5.35 0 0 5.35 154.19 378.35)" id="Layer_1-2"  >
<rect style="stroke: none; stroke-width: 1; stroke-dasharray: none; stroke-linecap: butt; stroke-dashoffset: 0; stroke-linejoin: miter; stroke-miterlimit: 4; fill: rgb(55,53,53); fill-rule: nonzero; opacity: 1;"  x="-2.195" y="-2.195" rx="1.02" ry="1.02" width="4.39" height="4.39" />
</g>
<g transform="matrix(5.35 0 0 5.35 201.77 378.35)" id="Layer_1-2"  >
<rect style="stroke: rgb(55,53,53); stroke-width: 1; stroke-dasharray: none; stroke-linecap: round; stroke-dashoffset: 0; stroke-linejoin: miter; stroke-miterlimit: 10; fill: none; fill-rule: nonzero; opacity: 1;"  x="-2.195" y="-2.195" rx="1.02" ry="1.02" width="4.39" height="4.39" />
</g>
<g transform="matrix(5.35 0 0 5.35 245.76 378.35)" id="Layer_1-2"  >
<rect style="stroke: none; stroke-width: 1; stroke-dasharray: none; stroke-linecap: butt; stroke-dashoffset: 0; stroke-linejoin: miter; stroke-miterlimit: 4; fill: rgb(55,53,53); fill-rule: nonzero; opacity: 1;"  x="-2.195" y="-2.195" rx="1.02" ry="1.02" width="4.39" height="4.39" />
</g>
<g transform="matrix(5.35 0 0 5.35 261.97 13.91)" id="Layer_1-2"  >
<path style="stroke: rgb(55,53,53); stroke-width: 1; stroke-dasharray: none; stroke-linecap: butt; stroke-dashoffset: 0; stroke-linejoin: miter; stroke-miterlimit: 10; fill: none; fill-rule: nonzero; opacity: 1;"  transform=" translate(-30.26, -11.43)" d="M 32.18 16.17 v 6.19 H 28.35 V 2.42 A 1.92 1.92 0 0 1 30.26 0.5 h 0 a 1.92 1.92 0 0 1 1.92 1.92 V 16.17" stroke-linecap="round" />
</g>
</svg>